<svg width="71" height="80" viewBox="0 0 71 80" fill="none" xmlns="http://www.w3.org/2000/svg">
<path fill-rule="evenodd" clip-rule="evenodd" d="M35.6391 0.00680416C35.6336 0.00316247 35.6262 0.00503469 35.6231 0.0108309C32.1152 6.60744 26.5502 12.0657 20.0335 15.72C13.917 19.133 6.61059 20.1185 0.510206 20.1929C0.229962 20.1963 0.00567254 20.4299 0.0148452 20.71C0.947076 49.1785 19.7305 71.4578 35.1597 79.8737C35.3072 79.9541 35.4787 79.9541 35.6261 79.8735C51.054 71.4424 69.888 49.1716 70.8212 20.7082C70.8305 20.424 70.5995 20.1887 70.3151 20.1911C63.7622 20.2465 56.859 19.2473 50.4967 15.5271C44.1677 11.8219 38.6948 5.87888 35.6427 0.0109041C35.6419 0.00924398 35.6406 0.0078422 35.6391 0.00680416Z" fill="white"/>
<path fill-rule="evenodd" clip-rule="evenodd" d="M35.5781 1.62109V78.39C50.5167 70.3635 68.8993 48.6818 69.5953 20.9853C63.158 21.094 56.3183 20.1807 50.0701 16.5154C43.9949 12.9588 38.5152 7.26178 35.5862 1.62914L35.5781 1.62109Z" fill="#231F20"/>
<path fill-rule="evenodd" clip-rule="evenodd" d="M35.5775 1.61816V78.3911C20.6389 70.3445 2.30065 48.691 1.60864 20.9945C7.55108 20.9703 14.785 20.0651 20.8361 16.7016C27.0936 13.1901 32.2104 7.95455 35.5775 1.61816Z" fill="#ED1C24"/>
<path fill-rule="evenodd" clip-rule="evenodd" d="M35.5821 11.1689C38.1838 14.3307 41.3468 16.985 44.9122 18.9983C45.3145 31.3982 48.9154 45.4476 54.2342 53.5667C54.3469 53.6954 54.2986 53.7678 54.2342 53.8563C50.6333 59.5775 45.3829 64.7797 40.909 68.3403V41.7019H30.4886V68.3564C26.0227 64.7958 20.3297 59.3965 16.6926 53.6914C16.5999 53.588 16.5486 53.4541 16.5486 53.3152C16.5486 53.1764 16.5999 53.0424 16.6926 52.939C21.77 45.1177 25.733 31.3741 25.9865 19.0023C29.869 16.8257 33.3451 13.9249 35.5781 11.173L35.5821 11.1689ZM35.6264 17.9523C34.0613 19.3282 32.5002 20.8611 30.4886 22.0762V37.6705H40.913V22.0762C39.0245 20.8699 37.2532 19.4892 35.6223 17.9523H35.6264Z" fill="white"/>
</svg>
